<svg width="78" height="78" viewBox="0 0 78 78" fill="none" xmlns="http://www.w3.org/2000/svg">
<path d="M22.4208 77.8213C-1.01246 75.1324 -10.3257 15.0469 15.5109 2.82608C40.146 -8.82642 78 18.0644 78 37.7842C78 58.4005 43.1504 80.2001 22.4208 77.8213Z" fill="#EE9C86"/>
<path d="M33.7501 28.5C33.7501 27.5717 34.1188 26.6815 34.7752 26.0251C35.4316 25.3687 36.3218 25 37.2501 25H40.7501C41.6783 25 42.5686 25.3687 43.225 26.0251C43.8813 26.6815 44.2501 27.5717 44.2501 28.5H51.7191C52.1043 27.8328 52.699 27.3114 53.4108 27.0165C54.1226 26.7217 54.9118 26.67 55.656 26.8694C56.4002 27.0688 57.0578 27.5082 57.5268 28.1194C57.9958 28.7307 58.2501 29.4796 58.2501 30.25C58.2501 31.0204 57.9958 31.7693 57.5268 32.3806C57.0578 32.9918 56.4002 33.4312 55.656 33.6306C54.9118 33.83 54.1226 33.7783 53.4108 33.4835C52.699 33.1886 52.1043 32.6672 51.7191 32H45.7831C47.7103 33.0678 49.3584 34.5751 50.5935 36.3996C51.8287 38.224 52.616 40.3141 52.8916 42.5H53.0001C53.9283 42.5 54.8186 42.8687 55.475 43.5251C56.1313 44.1815 56.5001 45.0717 56.5001 46V49.5C56.5001 50.4283 56.1313 51.3185 55.475 51.9749C54.8186 52.6313 53.9283 53 53.0001 53H49.5001C48.5718 53 47.6816 52.6313 47.0252 51.9749C46.3688 51.3185 46.0001 50.4283 46.0001 49.5V46C46.0002 45.097 46.3494 44.2289 46.9745 43.5773C47.5997 42.9257 48.4526 42.541 49.3548 42.5035C49.0608 40.7659 48.3348 39.1301 47.2434 37.7464C46.1521 36.3627 44.7304 35.2755 43.1091 34.5848C42.465 35.1744 41.6233 35.501 40.7501 35.5H37.2501C36.3401 35.5 35.5123 35.1535 34.8911 34.5848C33.2695 35.2752 31.8474 36.3623 30.7558 37.746C29.6641 39.1298 28.9378 40.7657 28.6436 42.5035C29.5461 42.5405 30.3994 42.9251 31.025 43.5767C31.6506 44.2284 31.9999 45.0967 32.0001 46V49.5C32.0001 50.4283 31.6313 51.3185 30.975 51.9749C30.3186 52.6313 29.4283 53 28.5001 53H25.0001C24.0718 53 23.1816 52.6313 22.5252 51.9749C21.8688 51.3185 21.5001 50.4283 21.5001 49.5V46C21.5001 45.0717 21.8688 44.1815 22.5252 43.5251C23.1816 42.8687 24.0718 42.5 25.0001 42.5H25.1086C25.3842 40.3141 26.1715 38.224 27.4067 36.3996C28.6418 34.5751 30.2899 33.0678 32.2171 32H26.2811C25.8959 32.6672 25.3012 33.1887 24.5894 33.4836C23.8776 33.7784 23.0883 33.8302 22.3441 33.6307C21.5999 33.4313 20.9423 32.9919 20.4733 32.3807C20.0042 31.7694 19.75 31.0205 19.75 30.25C19.75 29.4795 20.0042 28.7306 20.4733 28.1193C20.9423 27.5081 21.5999 27.0687 22.3441 26.8693C23.0883 26.6698 23.8776 26.7216 24.5894 27.0164C25.3012 27.3113 25.8959 27.8328 26.2811 28.5H33.7501Z" fill="white"/>
</svg>
