<svg width="78" height="78" viewBox="0 0 78 78" fill="none" xmlns="http://www.w3.org/2000/svg">
<path d="M22.4208 77.8213C-1.01246 75.1324 -10.3257 15.0469 15.5109 2.82608C40.146 -8.82642 78 18.0644 78 37.7842C78 58.4005 43.1504 80.2001 22.4208 77.8213Z" fill="#EE9C86"/>
<path d="M45.5625 45.5623H20.625C20.3959 45.5629 20.1706 45.5034 19.9716 45.3898C19.7726 45.2763 19.6068 45.1126 19.4907 44.9151C19.3745 44.7176 19.3121 44.4931 19.3096 44.264C19.3072 44.0349 19.3647 43.8092 19.4766 43.6092L31.9453 21.2967C32.0592 21.0927 32.2254 20.9229 32.4269 20.8046C32.6283 20.6864 32.8577 20.624 33.0913 20.624C33.3249 20.624 33.5542 20.6864 33.7557 20.8046C33.9571 20.9229 34.1234 21.0927 34.2373 21.2967L46.706 43.6092C46.8176 43.8088 46.8752 44.0341 46.8729 44.2628C46.8707 44.4915 46.8087 44.7156 46.6931 44.913C46.5776 45.1104 46.4125 45.2741 46.2142 45.388C46.0158 45.5019 45.7912 45.562 45.5625 45.5623Z" fill="white"/>
<path d="M45.5623 31.125C44.6648 31.1248 43.7696 31.2161 42.8905 31.3973L48.9994 42.3296C49.3342 42.9289 49.5065 43.6053 49.4992 44.2917C49.4919 44.978 49.3054 45.6506 48.958 46.2427C48.6106 46.8347 48.1145 47.3256 47.5188 47.6668C46.9232 48.0079 46.2487 48.1874 45.5623 48.1875H33.0386C33.7663 50.5015 35.121 52.5685 36.9523 54.1591C38.7837 55.7497 41.02 56.8018 43.413 57.1984C45.8061 57.595 48.2622 57.3207 50.5088 56.4059C52.7554 55.4911 54.7045 53.9716 56.1398 52.0162C57.5751 50.0607 58.4404 47.7457 58.6397 45.3282C58.8389 42.9108 58.3644 40.4854 57.2687 38.3212C56.1729 36.1571 54.4989 34.339 52.4325 33.0687C50.366 31.7984 47.988 31.1256 45.5623 31.125Z" fill="white"/>
</svg>
