<svg width="78" height="78" viewBox="0 0 78 78" fill="none" xmlns="http://www.w3.org/2000/svg">
<path d="M22.4208 77.8213C-1.01246 75.1324 -10.3257 15.0469 15.5109 2.82608C40.146 -8.82642 78 18.0644 78 37.7842C78 58.4005 43.1504 80.2001 22.4208 77.8213Z" fill="#EE9C86"/>
<path d="M39.0088 38.525C42.788 38.525 46.04 35.15 46.04 30.755C46.04 26.414 42.77 23.1973 39.0088 23.1973C35.2468 23.1973 31.9775 26.4845 31.9775 30.791C31.9775 35.15 35.2475 38.525 39.0088 38.525ZM27.9695 54.8023H50.048C52.808 54.8023 53.792 54.0118 53.792 52.4645C53.792 47.9293 48.1145 41.672 39.0088 41.672C29.8858 41.672 24.2075 47.9293 24.2075 52.4645C24.2075 54.0118 25.1923 54.8023 27.9695 54.8023Z" fill="white"/>
</svg>
