<svg width="78" height="78" viewBox="0 0 78 78" fill="none" xmlns="http://www.w3.org/2000/svg">
<path d="M22.4208 77.8213C-1.01246 75.1324 -10.3257 15.0469 15.5109 2.82608C40.146 -8.82642 78 18.0644 78 37.7842C78 58.4005 43.1504 80.2001 22.4208 77.8213Z" fill="#EE9C86"/>
<path fill-rule="evenodd" clip-rule="evenodd" d="M26.4002 22.2002C25.2863 22.2002 24.218 22.6427 23.4303 23.4303C22.6427 24.218 22.2002 25.2863 22.2002 26.4002V49.5002C22.2002 51.1711 22.8639 52.7735 24.0454 53.955C25.2269 55.1365 26.8293 55.8002 28.5002 55.8002C30.1711 55.8002 31.7735 55.1365 32.955 53.955C34.1364 52.7735 34.8002 51.1711 34.8002 49.5002V26.4002C34.8002 25.2863 34.3577 24.218 33.57 23.4303C32.7824 22.6427 31.7141 22.2002 30.6002 22.2002H26.4002ZM28.5002 51.6002C29.0572 51.6002 29.5913 51.3789 29.9851 50.9851C30.3789 50.5913 30.6002 50.0572 30.6002 49.5002C30.6002 48.9432 30.3789 48.4091 29.9851 48.0153C29.5913 47.6214 29.0572 47.4002 28.5002 47.4002C27.9432 47.4002 27.4091 47.6214 27.0153 48.0153C26.6214 48.4091 26.4002 48.9432 26.4002 49.5002C26.4002 50.0572 26.6214 50.5913 27.0153 50.9851C27.4091 51.3789 27.9432 51.6002 28.5002 51.6002ZM39.0002 47.9105L49.2902 37.6205C50.0776 36.8329 50.5199 35.7648 50.5199 34.6511C50.5199 33.5374 50.0776 32.4693 49.2902 31.6817L46.3187 28.7102C45.5311 27.9228 44.463 27.4805 43.3493 27.4805C42.2356 27.4805 41.1675 27.9228 40.3799 28.7102L39.0002 30.0899V47.9105ZM51.6002 55.8002H37.0493L49.6493 43.2002H51.6002C52.7141 43.2002 53.7824 43.6427 54.57 44.4303C55.3577 45.218 55.8002 46.2863 55.8002 47.4002V51.6002C55.8002 52.7141 55.3577 53.7824 54.57 54.57C53.7824 55.3577 52.7141 55.8002 51.6002 55.8002Z" fill="white"/>
</svg>
