<svg width="78" height="78" viewBox="0 0 78 78" fill="none" xmlns="http://www.w3.org/2000/svg">
<path d="M22.4208 77.8213C-1.01246 75.1324 -10.3257 15.0469 15.5109 2.82608C40.146 -8.82642 78 18.0644 78 37.7842C78 58.4005 43.1504 80.2001 22.4208 77.8213Z" fill="#EE9C86"/>
<path d="M40.0255 55.4745C41.051 56.5 42.6995 56.5 46 56.5H49.5C52.8005 56.5 54.449 56.5 55.4745 55.4745C56.5 54.449 56.5 52.8005 56.5 49.5V28.5C56.5 25.1995 56.5 23.551 55.4745 22.5255C54.449 21.5 52.8005 21.5 49.5 21.5H46C42.6995 21.5 41.051 21.5 40.0255 22.5255C39.1453 23.404 39.021 24.7428 39.0035 27.1875H42.5C42.8481 27.1875 43.1819 27.3258 43.4281 27.5719C43.6742 27.8181 43.8125 28.1519 43.8125 28.5C43.8125 28.8481 43.6742 29.1819 43.4281 29.4281C43.1819 29.6742 42.8481 29.8125 42.5 29.8125H39V32.4375H44.25C44.5981 32.4375 44.9319 32.5758 45.1781 32.8219C45.4242 33.0681 45.5625 33.4019 45.5625 33.75C45.5625 34.0981 45.4242 34.4319 45.1781 34.6781C44.9319 34.9242 44.5981 35.0625 44.25 35.0625H39V37.6875H42.5C42.8481 37.6875 43.1819 37.8258 43.4281 38.0719C43.6742 38.3181 43.8125 38.6519 43.8125 39C43.8125 39.3481 43.6742 39.6819 43.4281 39.9281C43.1819 40.1742 42.8481 40.3125 42.5 40.3125H39V42.9375H44.25C44.5981 42.9375 44.9319 43.0758 45.1781 43.3219C45.4242 43.5681 45.5625 43.9019 45.5625 44.25C45.5625 44.5981 45.4242 44.9319 45.1781 45.1781C44.9319 45.4242 44.5981 45.5625 44.25 45.5625H39V48.1875H42.5C42.8481 48.1875 43.1819 48.3258 43.4281 48.5719C43.6742 48.8181 43.8125 49.1519 43.8125 49.5C43.8125 49.8481 43.6742 50.1819 43.4281 50.4281C43.1819 50.6742 42.8481 50.8125 42.5 50.8125H39.0035C39.021 53.2572 39.1453 54.596 40.0255 55.4745ZM32 44.5895V30.6245C30.3346 31.3094 28.5508 31.6603 26.75 31.657C24.9492 31.6603 23.1654 31.3094 21.5 30.6245V44.5895C21.5 45.678 21.5 46.224 21.5665 46.7578C21.6447 47.3884 21.7914 48.0086 22.004 48.6075C22.1825 49.115 22.4258 49.6032 22.914 50.578L25.483 55.7178C25.6004 55.9533 25.7812 56.1514 26.005 56.2899C26.2288 56.4284 26.4868 56.5018 26.75 56.5018C27.0132 56.5018 27.2712 56.4284 27.495 56.2899C27.7188 56.1514 27.8996 55.9533 28.017 55.7178L30.586 50.578C31.0743 49.6032 31.3175 49.115 31.496 48.6075C31.7086 48.0086 31.8553 47.3884 31.9335 46.7578C32 46.224 32 45.678 32 44.5877M32 26.75C32 25.3576 31.4469 24.0223 30.4623 23.0377C29.4777 22.0531 28.1424 21.5 26.75 21.5C25.3576 21.5 24.0223 22.0531 23.0377 23.0377C22.0531 24.0223 21.5 25.3576 21.5 26.75V28.4247L21.64 28.4948C22.8317 29.0723 24.5712 29.6532 26.75 29.6532C28.5718 29.6586 30.3697 29.2379 32 28.4247V26.75Z" fill="white"/>
</svg>
